<svg width="1280" height="193" viewBox="0 0 1280 193" fill="none" xmlns="http://www.w3.org/2000/svg">
<path fill-rule="evenodd" clip-rule="evenodd" d="M0 145.297L53.3333 141.329C106.667 137.36 213.333 129.423 320 109.58C426.667 89.7376 533.333 57.9894 640 34.1782C746.667 10.367 853.333 -5.50716 960 2.4299C1066.67 10.367 1173.33 42.1152 1226.67 57.9894L1280 73.8635V192.919H1226.67C1173.33 192.919 1066.67 192.919 960 192.919C853.333 192.919 746.667 192.919 640 192.919C533.333 192.919 426.667 192.919 320 192.919C213.333 192.919 106.667 192.919 53.3333 192.919H0V145.297Z" fill="black"/>
<path fill-rule="evenodd" clip-rule="evenodd" d="M0 145.297L53.3333 141.329C106.667 137.36 213.333 129.423 320 109.58C426.667 89.7376 533.333 57.9894 640 34.1782C746.667 10.367 853.333 -5.50716 960 2.4299C1066.67 10.367 1173.33 42.1152 1226.67 57.9894L1280 73.8635V192.919H1226.67C1173.33 192.919 1066.67 192.919 960 192.919C853.333 192.919 746.667 192.919 640 192.919C533.333 192.919 426.667 192.919 320 192.919C213.333 192.919 106.667 192.919 53.3333 192.919H0V145.297Z" fill="url(#paint0_linear_8_62)"/>
<path fill-rule="evenodd" clip-rule="evenodd" d="M0 145.297L53.3333 141.329C106.667 137.36 213.333 129.423 320 109.58C426.667 89.7376 533.333 57.9894 640 34.1782C746.667 10.367 853.333 -5.50716 960 2.4299C1066.67 10.367 1173.33 42.1152 1226.67 57.9894L1280 73.8635V192.919H1226.67C1173.33 192.919 1066.67 192.919 960 192.919C853.333 192.919 746.667 192.919 640 192.919C533.333 192.919 426.667 192.919 320 192.919C213.333 192.919 106.667 192.919 53.3333 192.919H0V145.297Z" stroke="white"/>
<defs>
<linearGradient id="paint0_linear_8_62" x1="-148.966" y1="114.981" x2="712.556" y2="0.0772412" gradientUnits="userSpaceOnUse">
<stop offset="0.238878" stop-color="#1E1E1E"/>
<stop offset="1" stop-opacity="0"/>
</linearGradient>
</defs>
</svg>
